<svg  width="10.667" height="14.22" viewBox="0 0 10.667 14.22">
  <path id="Path_1995"  d="M154.333-23.33a14.328,14.328,0,0,1,.493,3.2,2.314,2.314,0,0,1-2.273,2.487,2.426,2.426,0,0,1-2.42-2.487l.02-.24A9.179,9.179,0,0,0,148-14.443a5.332,5.332,0,0,0,5.333,5.333,5.332,5.332,0,0,0,5.333-5.333A11.41,11.41,0,0,0,154.333-23.33ZM153.14-11.11a2.117,2.117,0,0,1-2.147-2.093,2.088,2.088,0,0,1,1.873-2.08,5.141,5.141,0,0,0,3.08-1.72,9.3,9.3,0,0,1,.393,2.693A3.2,3.2,0,0,1,153.14-11.11Z" transform="translate(-148 23.33)" fill="#ff7575"/>
</svg>
