<svg xmlns="http://www.w3.org/2000/svg" width="259.137" height="249.997" viewBox="0 0 259.137 249.997">
  <g id="illustration" transform="translate(-852 1463)">
    <path id="Path_2058" d="M181.2,187.336c-.9,0-1.8-.014-2.691-.042l.02-.646c1.276.04,2.579.051,3.861.033l.009.646Q181.8,187.336,181.2,187.336Zm5.087-.15-.038-.645c1.278-.075,2.573-.181,3.848-.315l.068.642c-1.285.135-2.589.242-3.877.317Zm-11.663-.1c-1.289-.1-2.591-.228-3.871-.385l.079-.641c1.27.156,2.563.284,3.842.382Zm19.4-.711-.1-.639c1.27-.193,2.55-.416,3.8-.665l.126.634c-1.263.251-2.552.477-3.832.67Zm-27.119-.236c-1.273-.216-2.559-.464-3.82-.738l.137-.632c1.252.272,2.527.518,3.791.732Zm34.749-1.28-.155-.627c1.247-.308,2.5-.649,3.726-1.013l.184.62c-1.235.366-2.5.71-3.754,1.02Zm-42.35-.371c-1.249-.332-2.506-.7-3.736-1.087l.195-.616c1.221.386,2.468.748,3.707,1.078Zm49.808-1.842-.212-.61c1.21-.421,2.426-.875,3.617-1.352l.24.6c-1.2.48-2.425.938-3.645,1.362Zm-57.236-.506c-1.213-.446-2.434-.927-3.628-1.43l.251-.6c1.185.5,2.4.977,3.6,1.419Zm64.45-2.381-.268-.588c1.162-.528,2.33-1.091,3.471-1.675l.294.576c-1.15.588-2.327,1.156-3.5,1.688Zm6.914-3.534-.32-.561c1.114-.636,2.226-1.3,3.305-1.987l.345.546c-1.087.688-2.207,1.362-3.33,2Zm6.567-4.154-.37-.529c1.049-.733,2.1-1.5,3.112-2.281l.394.512C231.918,170.559,230.863,171.333,229.806,172.071Zm-98.489-.91c-1.043-.758-2.085-1.551-3.1-2.359l.4-.5c1,.8,2.038,1.589,3.073,2.341Zm104.653-3.827-.416-.494c.978-.825,1.951-1.685,2.893-2.556l.439.475c-.949.877-1.929,1.744-2.915,2.575ZM125.235,166.3c-.971-.851-1.936-1.735-2.868-2.63l.447-.466c.925.888,1.882,1.766,2.846,2.61Zm116.445-4.252-.46-.454c.9-.913,1.793-1.859,2.65-2.809l.48.432C243.487,160.179,242.588,161.132,241.68,162.052Zm-122.058-1.135c-.891-.937-1.771-1.906-2.616-2.879l.488-.423c.838.966,1.712,1.927,2.6,2.857Zm127.267-4.646-.5-.41c.814-.991,1.616-2.014,2.384-3.04l.517.387c-.773,1.034-1.581,2.065-2.4,3.063Zm-132.364-1.227c-.8-1.011-1.588-2.055-2.342-3.1l.524-.377c.748,1.04,1.53,2.076,2.325,3.08Zm137.026-5.007-.535-.363c.721-1.061,1.426-2.153,2.1-3.246l.551.338c-.677,1.1-1.388,2.2-2.114,3.271Zm-141.566-1.3c-.7-1.079-1.393-2.19-2.048-3.3l.557-.328c.65,1.1,1.334,2.206,2.033,3.277ZM255.626,143.4l-.565-.312c.62-1.123,1.223-2.276,1.792-3.427l.579.287c-.573,1.16-1.181,2.322-1.806,3.453Zm3.451-6.986-.592-.259c.515-1.176,1.009-2.38,1.47-3.579l.6.232c-.464,1.208-.962,2.422-1.481,3.607Zm-156.349-1.394c-.5-1.189-.97-2.405-1.41-3.616l.607-.221c.437,1.2.907,2.408,1.4,3.588Zm159.143-5.886-.613-.2c.4-1.215.784-2.457,1.131-3.692l.622.175C262.661,126.659,262.277,127.911,261.871,129.135Zm-161.8-1.416c-.384-1.232-.746-2.49-1.074-3.74l.625-.164c.325,1.241.684,2.489,1.066,3.711Zm163.9-6.073-.629-.146c.289-1.245.554-2.517.786-3.78l.635.117c-.234,1.273-.5,2.554-.792,3.809ZM98.1,120.195c-.269-1.262-.513-2.548-.725-3.822l.637-.106c.21,1.265.452,2.541.719,3.793ZM265.386,114l-.641-.088c.174-1.266.321-2.556.436-3.836l.644.058c-.117,1.29-.265,2.59-.44,3.866ZM96.827,112.521c-.152-1.279-.277-2.582-.372-3.872l.645-.047c.094,1.281.218,2.573.369,3.843Zm169.262-6.271-.646-.029c.057-1.28.087-2.579.087-3.86h.646C266.176,103.652,266.147,104.96,266.088,106.25ZM96.259,104.763c-.022-.792-.033-1.6-.033-2.4q0-.746.013-1.489l.646.011q-.013.737-.013,1.478c0,.8.011,1.6.033,2.384Zm.779-7.738-.645-.04c.081-1.291.192-2.6.331-3.876l.642.07c-.138,1.271-.248,2.565-.328,3.847Zm168.074-3.942c-.129-1.274-.307-1.9-.494-3.163l.639-.094c.189,1.278.351,2.254.481,3.537ZM97.869,89.351l-.639-.1c.2-1.278.428-2.567.684-3.83l.633.128C98.294,86.8,98.065,88.083,97.869,89.351Zm166.1-3.236c-.246-1.261-.524-2.529-.827-3.771l.628-.153c.3,1.251.585,2.53.833,3.8ZM99.4,81.785l-.627-.157c.314-1.252.661-2.513,1.033-3.751l.619.186C100.056,79.291,99.711,80.543,99.4,81.785Zm162.74-3.171c-.36-1.23-.754-2.468-1.17-3.679l.611-.21c.42,1.22.817,2.468,1.18,3.707ZM101.624,74.382l-.61-.214c.429-1.222.893-2.449,1.378-3.648l.6.242c-.481,1.19-.942,2.408-1.368,3.62Zm158.006-3.068c-.471-1.189-.976-2.383-1.5-3.547l.589-.265c.529,1.174,1.037,2.376,1.512,3.575Zm-155.106-4.1-.587-.27c.54-1.175,1.114-2.354,1.707-3.5l.574.3C105.63,64.873,105.06,66.043,104.524,67.21ZM256.468,64.29c-.578-1.141-1.191-2.284-1.821-3.4l.562-.318c.635,1.122,1.252,2.274,1.835,3.423Zm-148.4-3.951-.56-.322c.645-1.119,1.324-2.24,2.021-3.33l.545.348c-.691,1.082-1.365,2.194-2.005,3.3Zm144.6-2.758c-.683-1.087-1.4-2.17-2.125-3.219l.531-.368c.733,1.057,1.454,2.148,2.142,3.243ZM112.23,53.826l-.528-.372c.745-1.057,1.524-2.11,2.315-3.13l.511.4C113.743,51.732,112.97,52.777,112.23,53.826Zm136.046-2.582c-.779-1.02-1.59-2.034-2.411-3.014l.5-.415c.827.987,1.645,2.009,2.429,3.036ZM116.965,47.722l-.492-.419c.836-.982,1.707-1.959,2.59-2.9l.472.441C118.659,45.777,117.795,46.748,116.965,47.722Zm126.354-2.394c-.868-.945-1.769-1.881-2.676-2.783l.456-.458c.914.909,1.822,1.852,2.7,2.8ZM122.233,42.077l-.452-.462c.924-.9,1.88-1.8,2.842-2.656l.43.482C124.1,40.293,123.15,41.18,122.233,42.077Zm115.611-2.191c-.951-.863-1.934-1.714-2.919-2.529l.412-.5c.993.822,1.983,1.679,2.941,2.549ZM127.99,36.936l-.408-.5c1-.814,2.032-1.617,3.07-2.386l.385.519C130.007,35.331,128.982,36.128,127.99,36.936Zm6.2-4.594-.361-.536c1.07-.72,2.171-1.424,3.273-2.1l.336.552c-1.093.665-2.187,1.365-3.248,2.079Zm6.587-4.007-.31-.567c1.132-.619,2.292-1.22,3.449-1.786l.284.581c-1.148.562-2.3,1.158-3.422,1.772Zm77.987-1.5c-1.15-.573-2.328-1.126-3.5-1.645l.261-.591c1.182.523,2.369,1.08,3.528,1.657ZM147.7,24.95l-.257-.593c1.183-.513,2.392-1,3.6-1.461l.229.6C150.07,23.953,148.87,24.441,147.7,24.95Zm63.99-1.239c-1.2-.464-2.421-.907-3.64-1.316l.206-.613c1.228.412,2.462.858,3.668,1.326Zm-56.782-1.5-.2-.614c1.228-.4,2.481-.782,3.724-1.126l.173.623C157.366,21.437,156.123,21.813,154.9,22.213Zm49.455-.961c-1.232-.351-2.489-.679-3.736-.972l.148-.629c1.256.3,2.523.626,3.765.98Zm-42.016-1.1-.144-.63c1.259-.288,2.541-.55,3.812-.779l.115.636c-1.26.228-2.533.488-3.782.773Zm34.5-.668c-1.258-.236-2.54-.446-3.81-.625l.09-.64c1.279.18,2.571.391,3.839.629Zm-26.906-.7-.086-.641c1.279-.171,2.58-.314,3.866-.426l.056.644C172.5,18.466,171.209,18.608,169.939,18.778Zm19.262-.371c-1.273-.12-2.568-.212-3.851-.274l.032-.646c1.292.063,2.6.156,3.88.277Zm-11.572-.3-.027-.646c1.188-.05,2.4-.075,3.6-.075h.292l0,.646H181.2c-1.191,0-2.392.025-3.571.074Z" transform="translate(759.478 -1480.386)" fill="#3f3d56"/>
    <path id="Path_2059" d="M463.441,91.874V301.307a9.415,9.415,0,0,1-9.412,9.405H369.006a9.4,9.4,0,0,1-9.412-9.405V91.874a9.411,9.411,0,0,1,9.413-9.412H381.73v1.632a7.75,7.75,0,0,0,7.749,7.751h43.243a7.686,7.686,0,0,0,4.594-1.512,7.2,7.2,0,0,0,.763-.64,7.727,7.727,0,0,0,2.391-5.6V82.462h13.56a9.409,9.409,0,0,1,9.412,9.412Z" transform="translate(581.204 -1524.436)" fill="#5f97ff"/>
    <rect id="Rectangle_606" width="78.986" height="60.096" transform="translate(953.228 -1366.475)" fill="#c2d8ff"/>
    <path id="Path_2060" d="M242.433,284.786c7.033.151,12.627,5.247,12.627,5.247s-5.808,4.852-12.84,4.7-12.627-5.247-12.627-5.247S235.4,284.635,242.433,284.786Z" transform="translate(669.201 -1661.387)" fill="#5f97ff"/>
    <path id="Path_2061" d="M140.278,188.209c6.354,3.018,13.639.972,13.639.972s-3.016-6.941-9.369-9.959-13.639-.972-13.639-.972S133.924,185.191,140.278,188.209Z" transform="translate(736.001 -1588.816)" fill="#5f97ff"/>
    <path id="Path_2062" d="M136.282,201.079c7-.64,13.136,3.8,13.136,3.8s-5.226,5.473-12.231,6.114-13.136-3.8-13.136-3.8S129.277,201.719,136.282,201.079Z" transform="translate(740.643 -1604.685)" fill="#3f3d56"/>
    <path id="Path_2063" d="M241.233,179.4c-.671,7,3.737,13.153,3.737,13.153s5.5-5.2,6.168-12.2S247.4,167.2,247.4,167.2,241.9,172.4,241.233,179.4Z" transform="translate(661.369 -1581.792)" fill="#3f3d56"/>
    <path id="Path_2064" d="M337.995,320.565c-3.674,6-2.41,13.46-2.41,13.46s7.221-2.264,10.9-8.262,2.41-13.46,2.41-13.46S341.669,314.567,337.995,320.565Z" transform="translate(597.598 -1680.016)" fill="#3f3d56"/>
    <path id="Path_2065" d="M234.213,318.229l.535-.362a16.775,16.775,0,0,1-2.961-9.3c.015-4.865,2.4-9.365,4.716-13.717.429-.808.857-1.613,1.268-2.418a52.774,52.774,0,0,0,4.1-10.3c3.585-13.321.055-29.038-9.441-42.042C224.9,229.767,213.672,220.746,198.1,212.5l-.3.571c15.479,8.194,26.637,17.153,34.111,27.388,9.382,12.848,12.873,28.359,9.338,41.493a52.147,52.147,0,0,1-4.056,10.178c-.41.8-.836,1.6-1.263,2.409-2.348,4.421-4.776,8.993-4.791,14.018a17.427,17.427,0,0,0,3.071,9.667Z" transform="translate(690.721 -1612.462)" fill="#3f3d56"/>
    <circle id="Ellipse_67" cx="6.139" cy="6.139" r="6.139" transform="translate(852 -1411.386)" fill="#3f3d56"/>
    <path id="Path_2066" d="M205.729,357.988l-38.536-3.211V298.258l38.536-1.927Z" transform="translate(738.827 -1663.587)" fill="#c2d8ff"/>
    <path id="Path_2067" d="M584.61,357.988l38.536-3.211V298.258l-38.536-1.927Z" transform="translate(456.277 -1663.587)" fill="#c2d8ff"/>
    <path id="Path_2068" d="M496.1,362.013a7.7,7.7,0,0,0-8.449-1.074,11.4,11.4,0,0,1-3.75,1.073,21.706,21.706,0,0,1,1.525-8.244l.17-.44h-2.265l-.065.238a25.083,25.083,0,0,0-.6,2.819,7.3,7.3,0,0,0-.474-1.2,10.362,10.362,0,0,0-5.415-4.491l-.313-.107-.1.315a10.364,10.364,0,0,0,.393,7.024,9.813,9.813,0,0,0,4.559,4.132,11.719,11.719,0,0,1-4.432-1.186,5.169,5.169,0,0,0-5.473.462,16.241,16.241,0,0,0-6.654,12.924c0,6.568,4.253,12.583,10.836,15.324a4.875,4.875,0,0,0,1.873.372,4.969,4.969,0,0,0,2.537-.7,6.71,6.71,0,0,1,6.722-.013,4.957,4.957,0,0,0,4.414.311c6.544-2.751,10.773-8.756,10.773-15.3A16.008,16.008,0,0,0,496.1,362.013Zm-12.275-8.039h.832a22.28,22.28,0,0,0-1.407,7.832H483.1a23.506,23.506,0,0,1,.724-7.832Zm-6.487,3.664a9.6,9.6,0,0,1-.443-6.2,8.066,8.066,0,0,1,5.167,10.247,9.6,9.6,0,0,1-4.724-4.043ZM490.9,388.963a4.3,4.3,0,0,1-3.835-.272,7.355,7.355,0,0,0-7.381.015,4.3,4.3,0,0,1-3.832.283c-6.341-2.64-10.438-8.421-10.438-14.727a15.6,15.6,0,0,1,6.4-12.409,4.476,4.476,0,0,1,2.709-.9,4.529,4.529,0,0,1,2.076.5,13.339,13.339,0,0,0,11.346.067,7.053,7.053,0,0,1,7.741.986,15.369,15.369,0,0,1,5.593,11.758c0,6.281-4.074,12.051-10.378,14.7Z" transform="translate(510.014 -1705.932)" fill="#3f3d56"/>
    <path id="Path_2069" d="M293.325,357.629v-.758h.3v-2.363a.956.956,0,0,0-.511-.852,4.6,4.6,0,0,0-4.26,0,.963.963,0,0,0-.55.871v2.34h.3v.687a5.266,5.266,0,0,0-3.845,5.091v5.113l.574.192-.574.383v1.537l.574.192-.574.383v1.537l.574.191-.574.383v11.7a3.447,3.447,0,0,0,3.443,3.443h5.076a3.439,3.439,0,0,0,3.435-3.435V372.558l-.574-.383.574-.191v-1.537l-.574-.383.574-.192v-1.537l-.574-.383.574-.192v-5.378A5.055,5.055,0,0,0,293.325,357.629Zm-4.2-3.385a3.935,3.935,0,0,1,3.687-.016.315.315,0,0,1,.164.279v1.265h-4.028V354.53a.315.315,0,0,1,.177-.286Zm6.942,13.052-1.386.462,1.386.924v.725l-1.386.462,1.386.924v.725l-1.386.462,1.386.924V384.27a2.792,2.792,0,0,1-2.789,2.789h-5.076a2.8,2.8,0,0,1-2.8-2.8V372.9l1.386-.924-1.386-.462v-.725l1.386-.924-1.386-.462v-.725l1.386-.924-1.386-.462v-4.647A4.624,4.624,0,0,1,289,358.123l.25-.058v-1.194h3.425v1.237l.233.068a4.4,4.4,0,0,1,3.16,4.209Z" transform="translate(631.857 -1707.654)" fill="#3f3d56"/>
    <path id="Path_2070" d="M711.339,380.995l-1.627-.325.383-.766-.746-.149.129-.776-.815-.136v-.736l-.661-.189.628-.784h-1.089l.228-.568-.805-.134.273-.958h-.871v-.894h-.323c-1.018,0-1.586,1.209-1.772,1.693-5.62.98-21.936,12.282-23.8,13.581a3.371,3.371,0,0,0-2.161.468l-.379.207.547.547-.163.489,1,.376-.22.55.632.527-.568.426.855.513-.15.75.955.137v.75l.554.111-.276.969h.616v.766h.6l.272.816.279-.056c.65-.13,1.207-1.029,1.424-1.428,5.412-.966,22.121-12.721,23.747-13.873,1.9.228,2.6-.28,2.671-.339l.309-.247-.738-.615ZM708,382.243l-.126-.017-.1.074c-.185.131-18.509,13.113-23.733,13.859l-.168.024-.076.151a3.879,3.879,0,0,1-.8,1.093l-.211-.633h-.42v-.766h-.405l.234-.818-.722-.144v-.781l-.833-.119.105-.527-.422-.253.453-.34-.9-.749.291-.727-1.039-.39.092-.277-.2-.2c.485-.2,1.072-.352,1.324-.2l.18.108.172-.12c.183-.129,18.383-12.858,23.86-13.6l.2-.028.061-.2a2.631,2.631,0,0,1,.9-1.341v.8h.661l-.237.83.727.121-.284.709h.7l-.394.493,1.126.322v.8l.718.12-.126.756.531.106-.383.766.926.185-.477.318.686.572a5.161,5.161,0,0,1-1.891.031Z" transform="translate(365.72 -1722.171)" fill="#3f3d56"/>
    <circle id="Ellipse_68" cx="9.37" cy="9.37" r="9.37" transform="translate(983.351 -1297.655)" fill="none" stroke="#fcfcfc" stroke-width="2"/>
    <path id="Path_2071" d="M429.076,527.461H424.1v-4.974h-1.851v4.974h-4.974v1.851h4.974v4.974H424.1v-4.974h4.974Z" transform="translate(569.545 -1816.672)" fill="#fcfcfc"/>
    <rect id="Rectangle_607" width="236.832" height="0.646" transform="translate(874.306 -1213.649)" fill="#3f3d56"/>
    <rect id="Rectangle_608" width="62.035" height="0.646" transform="translate(961.704 -1411.386)" fill="#fcfcfc"/>
    <rect id="Rectangle_609" width="62.035" height="0.646" transform="translate(961.854 -1234.974)" fill="#fcfcfc"/>
  </g>
</svg>
