<svg xmlns="http://www.w3.org/2000/svg" width="247.138" height="239.345" viewBox="0 0 247.138 239.345">
  <g id="Group_280" transform="translate(-781 1227)">
    <path id="Path_2058" d="M177.266,179.467c-.855,0-1.719-.014-2.566-.04l.019-.616c1.217.038,2.459.048,3.682.032l.008.616Q177.839,179.466,177.266,179.467Zm4.852-.143-.036-.615c1.219-.072,2.454-.173,3.67-.3l.064.613c-1.225.129-2.469.231-3.7.3Zm-11.122-.1c-1.229-.094-2.471-.218-3.692-.367l.075-.611c1.211.148,2.444.271,3.664.364Zm18.5-.678-.092-.609c1.211-.184,2.432-.4,3.627-.635l.12.6c-1.2.239-2.434.454-3.654.639Zm-25.864-.225c-1.214-.206-2.44-.442-3.643-.7l.131-.6c1.194.259,2.41.494,3.615.7Zm33.14-1.221-.148-.6c1.189-.294,2.384-.619,3.553-.966l.175.591c-1.178.349-2.382.677-3.58.973Zm-40.389-.353c-1.191-.317-2.39-.665-3.563-1.036l.186-.587c1.164.368,2.354.714,3.535,1.028Zm47.5-1.757-.2-.582c1.154-.4,2.314-.835,3.449-1.289l.229.572c-1.144.458-2.313.895-3.476,1.3Zm-54.585-.483c-1.157-.425-2.321-.884-3.46-1.364l.239-.568c1.13.476,2.285.931,3.433,1.354Zm61.466-2.27-.255-.561c1.108-.5,2.222-1.041,3.31-1.6l.28.549c-1.1.561-2.219,1.1-3.335,1.61Zm6.594-3.371-.305-.535c1.063-.606,2.123-1.244,3.152-1.895l.329.521c-1.037.656-2.105,1.3-3.176,1.909Zm6.262-3.962-.353-.5c1-.7,2-1.431,2.968-2.176l.376.489C225.635,163.467,224.629,164.2,223.62,164.908Zm-93.929-.868c-.995-.723-1.988-1.479-2.953-2.25l.385-.481c.958.765,1.944,1.516,2.931,2.233Zm99.807-3.65-.4-.471c.933-.787,1.861-1.607,2.759-2.437l.418.453c-.9.837-1.84,1.663-2.78,2.456Zm-105.608-.982c-.926-.811-1.847-1.655-2.735-2.508l.427-.445c.882.847,1.8,1.684,2.715,2.489Zm111.053-4.055-.439-.433c.86-.871,1.71-1.773,2.527-2.679l.458.412C236.668,153.567,235.811,154.475,234.945,155.353Zm-116.406-1.082c-.85-.894-1.689-1.818-2.495-2.746l.466-.4c.8.921,1.632,1.838,2.476,2.725Zm121.374-4.431-.476-.391c.777-.945,1.541-1.92,2.273-2.9l.494.369c-.738.986-1.508,1.97-2.291,2.921Zm-126.235-1.17c-.763-.964-1.515-1.96-2.234-2.96l.5-.36c.714.992,1.459,1.98,2.217,2.937ZM244.358,143.9l-.51-.346c.687-1.012,1.36-2.053,2-3.1l.525.323c-.646,1.051-1.324,2.1-2.016,3.119Zm-135.011-1.242c-.671-1.029-1.329-2.089-1.954-3.149l.531-.313c.62,1.052,1.272,2.1,1.939,3.125Zm138.9-5.088-.539-.3c.592-1.071,1.166-2.17,1.709-3.268l.553.273c-.546,1.106-1.126,2.214-1.722,3.293Zm3.291-6.662-.565-.247c.491-1.122.963-2.27,1.4-3.414l.575.221c-.442,1.152-.918,2.31-1.412,3.44Zm-149.109-1.33c-.472-1.134-.925-2.294-1.345-3.448l.579-.211c.416,1.146.865,2.3,1.334,3.422ZM254.2,123.961l-.585-.194c.385-1.159.747-2.343,1.078-3.521l.593.167C254.954,121.6,254.588,122.793,254.2,123.961ZM99.9,122.61c-.367-1.174-.711-2.374-1.024-3.566l.6-.156c.31,1.183.652,2.374,1.016,3.539Zm156.314-5.791-.6-.14c.276-1.188.528-2.4.75-3.6l.606.111c-.223,1.214-.478,2.436-.756,3.633Zm-158.2-1.385c-.257-1.2-.49-2.43-.691-3.645l.608-.1c.2,1.206.431,2.423.686,3.618Zm159.539-5.911-.611-.084c.166-1.207.306-2.438.416-3.658l.614.055c-.111,1.23-.253,2.47-.419,3.687ZM96.8,108.116c-.145-1.22-.265-2.462-.355-3.693l.615-.045c.089,1.221.208,2.454.352,3.665Zm161.424-5.981-.616-.028c.055-1.221.083-2.46.083-3.681h.616C258.306,99.657,258.278,100.9,258.223,102.135ZM96.257,100.717c-.021-.756-.032-1.527-.032-2.291q0-.711.012-1.42l.616.011q-.012.7-.012,1.409c0,.759.011,1.524.032,2.274ZM97,93.338l-.615-.039c.077-1.231.183-2.475.315-3.7l.613.066c-.131,1.213-.237,2.447-.313,3.669Zm160.292-3.76c-.123-1.215-.292-1.807-.471-3.017l.61-.09c.18,1.219.334,2.149.459,3.373Zm-159.5-3.559-.609-.094c.189-1.219.408-2.448.652-3.653l.6.122C98.2,83.589,97.98,84.809,97.793,86.019ZM256.2,82.933c-.235-1.2-.5-2.412-.788-3.6l.6-.146c.29,1.193.558,2.413.794,3.624ZM99.253,78.8l-.6-.15c.3-1.194.631-2.4.985-3.577l.59.177C99.879,76.424,99.55,77.619,99.253,78.8Zm155.2-3.024c-.344-1.173-.719-2.354-1.116-3.509l.583-.2c.4,1.164.779,2.353,1.125,3.536ZM101.374,71.743l-.581-.2c.41-1.165.852-2.336,1.314-3.479l.571.231c-.459,1.135-.9,2.3-1.3,3.452Zm150.69-2.926c-.45-1.134-.931-2.272-1.431-3.383l.562-.253c.5,1.119.989,2.266,1.442,3.409ZM104.14,64.9l-.56-.257c.515-1.121,1.063-2.245,1.628-3.341l.548.283C105.195,62.675,104.651,63.79,104.14,64.9Zm144.908-2.784c-.552-1.088-1.136-2.178-1.737-3.24l.536-.3c.606,1.07,1.194,2.169,1.75,3.265ZM107.523,58.35l-.534-.308c.615-1.067,1.263-2.136,1.927-3.176l.519.332c-.659,1.032-1.3,2.092-1.912,3.152Zm137.9-2.63c-.651-1.037-1.333-2.069-2.027-3.07l.506-.351c.7,1.008,1.386,2.048,2.042,3.093ZM111.489,52.138l-.5-.355c.71-1.008,1.453-2.012,2.208-2.985l.487.378C112.932,50.142,112.194,51.138,111.489,52.138Zm129.746-2.463c-.743-.973-1.516-1.94-2.3-2.874l.472-.4c.789.942,1.568,1.916,2.317,2.9ZM116,46.317l-.469-.4c.8-.936,1.628-1.869,2.47-2.77l.45.42C117.621,44.463,116.8,45.388,116,46.317Zm120.5-2.283c-.828-.9-1.687-1.794-2.552-2.654l.435-.437c.872.867,1.737,1.767,2.571,2.674Zm-115.479-3.1-.431-.441c.881-.862,1.793-1.714,2.71-2.533l.41.46C122.808,39.232,121.9,40.078,121.029,40.933Zm110.257-2.089c-.907-.823-1.844-1.634-2.784-2.412l.393-.475c.947.784,1.891,1.6,2.805,2.431ZM126.519,36.031l-.389-.478c.953-.776,1.938-1.542,2.928-2.275l.367.5C128.443,34.5,127.465,35.26,126.519,36.031Zm5.911-4.381-.344-.511c1.02-.686,2.07-1.358,3.122-2l.32.527c-1.043.635-2.085,1.3-3.1,1.983Zm6.282-3.821-.3-.541c1.079-.591,2.186-1.163,3.289-1.7l.271.554c-1.095.535-2.193,1.1-3.264,1.69ZM213.087,26.4c-1.1-.546-2.22-1.074-3.339-1.569l.249-.564c1.128.5,2.26,1.03,3.365,1.581Zm-67.774-1.8-.245-.565c1.128-.489,2.282-.958,3.429-1.394l.219.576C147.577,23.649,146.432,24.115,145.313,24.6Zm61.027-1.182c-1.141-.442-2.309-.865-3.471-1.255l.2-.584c1.171.393,2.348.818,3.5,1.265Zm-54.153-1.429L152,21.4c1.171-.384,2.366-.746,3.551-1.074l.165.594C154.535,21.249,153.349,21.608,152.187,21.989Zm47.165-.916c-1.175-.335-2.374-.647-3.563-.927l.141-.6c1.2.282,2.406.6,3.591.934Zm-40.071-1.052-.137-.6c1.2-.274,2.424-.524,3.635-.743l.11.606c-1.2.217-2.416.465-3.607.737Zm32.905-.637c-1.2-.225-2.422-.426-3.633-.6l.085-.61c1.22.171,2.452.373,3.662.6Zm-25.66-.671-.082-.611c1.22-.163,2.461-.3,3.687-.407l.054.614C168.968,18.416,167.737,18.552,166.526,18.713Zm18.37-.354c-1.214-.114-2.449-.2-3.673-.262l.03-.616c1.232.06,2.477.149,3.7.264Zm-11.036-.286-.026-.616c1.133-.047,2.287-.071,3.431-.072h.279l0,.616h-.277c-1.136,0-2.282.024-3.405.071Z" transform="translate(688.307 -1244.386)" fill="#3f3d56"/>
    <path id="Path_2059"  d="M458.633,91.438V291.173a8.979,8.979,0,0,1-8.976,8.97H368.57a8.961,8.961,0,0,1-8.976-8.97V91.438a8.975,8.975,0,0,1,8.977-8.976H380.7v1.556a7.391,7.391,0,0,0,7.39,7.392h41.24a7.33,7.33,0,0,0,4.382-1.442,6.862,6.862,0,0,0,.727-.61,7.37,7.37,0,0,0,2.28-5.34V82.462h12.933a8.973,8.973,0,0,1,8.976,8.976Z" transform="translate(506.092 -1289.41)" fill="#5f97ff"/>
    <rect id="Rectangle_606" width="75.329" height="57.314" transform="translate(877.541 -1134.945)" fill="#c2d8ff"/>
    <path id="Path_2060" d="M241.839,284.786c6.707.144,12.042,5,12.042,5s-5.539,4.627-12.246,4.483-12.042-5-12.042-5S235.132,284.642,241.839,284.786Z" transform="translate(596.035 -1429.387)" fill="#6c63ff"/>
    <path id="Path_2061" d="M139.844,187.717c6.059,2.879,13.008.927,13.008.927s-2.876-6.619-8.935-9.5-13.008-.927-13.008-.927S133.785,184.838,139.844,187.717Z" transform="translate(664.31 -1355.213)" fill="#6c63ff"/>
    <path id="Path_2062" d="M135.716,201.076c6.681-.611,12.528,3.62,12.528,3.62s-4.984,5.22-11.664,5.831-12.528-3.62-12.528-3.62S129.035,201.686,135.716,201.076Z" transform="translate(669.055 -1371.432)" fill="#3f3d56"/>
    <path id="Path_2063" d="M241.23,178.833c-.64,6.678,3.564,12.544,3.564,12.544s5.242-4.961,5.883-11.638-3.564-12.544-3.564-12.544S241.87,172.155,241.23,178.833Z" transform="translate(588.029 -1348.033)" fill="#3f3d56"/>
    <path id="Path_2064" d="M337.874,320.183c-3.5,5.721-2.3,12.836-2.3,12.836s6.887-2.159,10.391-7.88,2.3-12.836,2.3-12.836S341.377,314.462,337.874,320.183Z" transform="translate(522.848 -1448.428)" fill="#3f3d56"/>
    <path id="Path_2065" d="M232.527,313.333l.511-.345a16,16,0,0,1-2.824-8.872c.014-4.64,2.293-8.931,4.5-13.082.409-.77.817-1.538,1.209-2.306a50.329,50.329,0,0,0,3.915-9.827c3.419-12.7.053-27.693-9-40.1-7.184-9.838-17.894-18.442-32.741-26.3l-.288.545c14.762,7.815,25.4,16.359,32.531,26.12,8.947,12.253,12.277,27.046,8.906,39.572a49.733,49.733,0,0,1-3.868,9.707c-.391.764-.8,1.529-1.2,2.3-2.239,4.216-4.555,8.576-4.569,13.369a16.62,16.62,0,0,0,2.929,9.219Z" transform="translate(618.03 -1379.381)" fill="#3f3d56"/>
    <circle id="Ellipse_67" cx="5.855" cy="5.855" r="5.855" transform="translate(781 -1177.776)" fill="#3f3d56"/>
    <path id="Path_2066" d="M203.944,355.133l-36.751-3.063v-53.9l36.751-1.837Z" transform="translate(665.326 -1432.02)" fill="#c2d8ff"/>
    <path id="Path_2067" d="M584.61,355.133l36.751-3.063v-53.9l-36.751-1.837Z" transform="translate(376.531 -1432.02)" fill="#c2d8ff"/>
    <path id="Path_2068" d="M494.651,361.484a7.343,7.343,0,0,0-8.058-1.024,10.875,10.875,0,0,1-3.577,1.023,20.7,20.7,0,0,1,1.454-7.862l.162-.419h-2.16l-.062.227a23.894,23.894,0,0,0-.568,2.688,6.969,6.969,0,0,0-.452-1.141,9.882,9.882,0,0,0-5.164-4.283l-.3-.1-.1.3a9.883,9.883,0,0,0,.375,6.7,9.358,9.358,0,0,0,4.348,3.941,11.175,11.175,0,0,1-4.227-1.131,4.93,4.93,0,0,0-5.219.441,15.489,15.489,0,0,0-6.346,12.325c0,6.264,4.056,12,10.334,14.614a4.649,4.649,0,0,0,1.787.355,4.74,4.74,0,0,0,2.42-.664,6.4,6.4,0,0,1,6.411-.012,4.727,4.727,0,0,0,4.209.3c6.241-2.624,10.274-8.35,10.274-14.589A15.267,15.267,0,0,0,494.651,361.484Zm-11.706-7.667h.793a21.247,21.247,0,0,0-1.342,7.47h-.142a22.416,22.416,0,0,1,.691-7.469Zm-6.186,3.495a9.156,9.156,0,0,1-.423-5.916,7.692,7.692,0,0,1,4.928,9.772,9.154,9.154,0,0,1-4.505-3.856Zm12.928,29.874a4.105,4.105,0,0,1-3.658-.26,7.015,7.015,0,0,0-7.039.015,4.1,4.1,0,0,1-3.654.27c-6.048-2.518-9.955-8.031-9.955-14.045a14.878,14.878,0,0,1,6.1-11.835,4.27,4.27,0,0,1,2.584-.863,4.319,4.319,0,0,1,1.98.479,12.721,12.721,0,0,0,10.821.064,6.727,6.727,0,0,1,7.382.94,14.658,14.658,0,0,1,5.334,11.214c0,5.99-3.885,11.493-9.9,14.021Z" transform="translate(433.329 -1474.917)" fill="#3f3d56" stroke="#3f3d56" stroke-width="1.2"/>
    <path id="Path_2069" d="M292.929,357.421V356.7h.288v-2.254a.912.912,0,0,0-.487-.813,4.385,4.385,0,0,0-4.062,0,.919.919,0,0,0-.524.831V356.7h.288v.655a5.022,5.022,0,0,0-3.667,4.856v4.877l.548.183-.548.365V369.1l.548.183-.548.365v1.465l.548.183-.548.365V382.82a3.288,3.288,0,0,0,3.284,3.284h4.841a3.28,3.28,0,0,0,3.276-3.276V371.659l-.548-.365.548-.183v-1.465l-.548-.365.548-.183v-1.465l-.548-.365.548-.183v-5.129a4.821,4.821,0,0,0-3.236-4.535Zm-4-3.228a3.752,3.752,0,0,1,3.516-.015.3.3,0,0,1,.156.266v1.206h-3.841v-1.184a.3.3,0,0,1,.169-.273Zm6.62,12.448-1.322.441,1.322.881v.691l-1.322.441,1.322.881v.691l-1.322.44,1.322.881v10.839a2.663,2.663,0,0,1-2.66,2.66h-4.841a2.671,2.671,0,0,1-2.667-2.668V371.989l1.322-.881-1.322-.44v-.691l1.322-.881-1.322-.441v-.692l1.322-.881-1.322-.441v-4.432a4.41,4.41,0,0,1,3.428-4.317l.239-.055V356.7h3.266v1.18l.222.065a4.2,4.2,0,0,1,3.013,4.014Z" transform="translate(557.865 -1476.677)" fill="#3f3d56" stroke="#3f3d56" stroke-width="1.2"/>
    <path id="Path_2070" d="M709.792,380.7l-1.552-.31.365-.731-.712-.142.123-.74-.777-.13v-.7l-.63-.18.6-.748H706.17l.217-.542-.768-.128.261-.913h-.831v-.852h-.308c-.971,0-1.512,1.153-1.69,1.615-5.359.935-20.92,11.713-22.7,12.952a3.215,3.215,0,0,0-2.061.446l-.362.2.522.522-.156.466.958.359-.21.524.6.5-.542.407.815.489-.143.715.911.13v.716l.529.106-.264.924h.587v.731h.573l.26.778.267-.054c.62-.124,1.151-.982,1.358-1.362,5.161-.921,21.1-12.132,22.648-13.23a3.534,3.534,0,0,0,2.547-.324l.295-.236-.7-.586Zm-3.184,1.19-.12-.016-.1.07c-.176.125-17.652,12.506-22.634,13.218l-.16.023-.072.144a3.7,3.7,0,0,1-.762,1.042l-.2-.6h-.4v-.731h-.387l.223-.781-.689-.138v-.745l-.794-.113.1-.5-.4-.241.432-.324-.858-.715.277-.693-.991-.372.088-.264-.191-.192c.463-.192,1.023-.335,1.263-.192l.172.1.164-.115c.175-.123,17.532-12.263,22.755-12.975l.195-.027.058-.188a2.509,2.509,0,0,1,.858-1.279v.766h.63l-.226.791.693.116-.271.676h.667l-.376.47,1.074.307v.759l.684.114-.12.721.506.1-.365.731.883.177-.455.3.654.545a4.922,4.922,0,0,1-1.8.029Z" transform="translate(285.846 -1491.515)" fill="#3f3d56" stroke="#3f3d56" stroke-width="1.2"/>
    <circle id="Ellipse_68" cx="8.936" cy="8.936" r="8.936" transform="translate(906.269 -1069.312)" fill="none" stroke="#fff" stroke-width="2.5"/>
    <path id="Path_2071" d="M428.53,527.231h-4.744v-4.744h-1.765v4.744h-4.744V529h4.744v4.744h1.765V529h4.744Z" transform="translate(492.302 -1588.489)" fill="#fff" stroke="#fff" stroke-width="1"/>
    <rect id="Rectangle_607" width="225.865" height="1.541" transform="translate(802.273 -989.196)" fill="#3f3d56"/>
    <rect id="Rectangle_608" width="59.163" height="1.233" transform="translate(885.624 -1177.776)" fill="#fff"/>
    <rect id="Rectangle_609" width="59.163" height="1.233" transform="translate(885.767 -1009.533)" fill="#fff"/>
  </g>
</svg>
