<svg xmlns="http://www.w3.org/2000/svg" width="13.588" height="13.588" viewBox="0 0 13.588 13.588">
  <g id="Group_279" transform="translate(-940.46 -1883.732) rotate(45)">
    <path id="Path_2056" d="M2.614,13.989h0A2.614,2.614,0,0,1,0,11.375V2.614A2.614,2.614,0,0,1,2.614,0h0A2.614,2.614,0,0,1,5.228,2.614v8.761A2.614,2.614,0,0,1,2.614,13.989Z" transform="translate(2004 660)" fill="#7dddec"/>
    <path id="Path_2057" d="M5.228,6.994H0V2.614A2.614,2.614,0,0,1,2.614,0h0A2.614,2.614,0,0,1,5.228,2.614Z" transform="translate(2004 660)" fill="#ff707e"/>
  </g>
</svg>
