<svg xmlns="http://www.w3.org/2000/svg" width="12.07" height="14.467" viewBox="0 0 12.07 14.467">
  <g id="user" transform="translate(0 0)">
    <path id="Path_2036"  d="M90.516,6.969A3.372,3.372,0,0,0,92.98,5.948,3.371,3.371,0,0,0,94,3.485,3.372,3.372,0,0,0,92.98,1.021a3.484,3.484,0,0,0-4.927,0,3.372,3.372,0,0,0-1.021,2.464,3.371,3.371,0,0,0,1.021,2.464A3.372,3.372,0,0,0,90.516,6.969Zm0,0" transform="translate(-84.573 0)" fill="#78a1ff"/>
    <path id="Path_2037"  d="M12.041,251.453a8.606,8.606,0,0,0-.117-.914,7.2,7.2,0,0,0-.225-.919,4.539,4.539,0,0,0-.378-.857,3.234,3.234,0,0,0-.57-.742,2.512,2.512,0,0,0-.818-.514,2.829,2.829,0,0,0-1.045-.189,1.06,1.06,0,0,0-.566.24c-.17.111-.368.239-.59.38a3.38,3.38,0,0,1-.763.336,2.964,2.964,0,0,1-1.867,0,3.373,3.373,0,0,1-.763-.336c-.22-.14-.418-.268-.591-.381a1.059,1.059,0,0,0-.566-.24,2.825,2.825,0,0,0-1.045.189,2.51,2.51,0,0,0-.819.514,3.235,3.235,0,0,0-.57.742,4.549,4.549,0,0,0-.378.857,7.217,7.217,0,0,0-.225.919,8.576,8.576,0,0,0-.117.914c-.019.277-.029.564-.029.854a2.4,2.4,0,0,0,.713,1.817,2.568,2.568,0,0,0,1.839.671H9.518a2.568,2.568,0,0,0,1.838-.671,2.4,2.4,0,0,0,.714-1.818c0-.292-.01-.579-.029-.855Zm0,0" transform="translate(0 -240.328)" fill="#78a1ff"/>
  </g>
</svg>
