<svg id="drop-silhouette" xmlns="http://www.w3.org/2000/svg" width="9.215" height="13.149" viewBox="0 0 9.215 13.149">
  <g id="Group_4"  transform="translate(0)">
    <path id="Path_1996"  d="M59.151,3.667a32.549,32.549,0,0,1,2.5-3.528.377.377,0,0,1,.585,0,32.589,32.589,0,0,1,2.5,3.528,10.253,10.253,0,0,1,1.811,4.874,4.608,4.608,0,0,1-9.215,0A10.251,10.251,0,0,1,59.151,3.667Zm2.165,7.785a3.353,3.353,0,0,0,.83.1,3.021,3.021,0,0,0,3.122-2.9,3.707,3.707,0,0,0-.3-1.341.2.2,0,0,0-.226-.113.182.182,0,0,0-.149.194,2.921,2.921,0,0,1,.018.313,3.507,3.507,0,0,1-3.262,3.39.187.187,0,0,0-.172.165A.182.182,0,0,0,61.315,11.452Z" transform="translate(-57.34 0)" fill="#ace6ff"/>
  </g>
</svg>
