<svg xmlns="http://www.w3.org/2000/svg" width="14.163" height="7.902" viewBox="0 0 14.163 7.902">
  <path id="Path_2055" d="M7.072,0A9.3,9.3,0,0,0,0,3.246L3.144,7.889a9.247,9.247,0,0,1,2.531-.76l.634-1.1.772-1.337L7.854,6.03l.637,1.1a9.252,9.252,0,0,1,2.536.77L14.163,3.27A9.3,9.3,0,0,0,7.072,0ZM3.837,4.488a.246.246,0,0,1-.342-.064l-1.233-1.8a.246.246,0,0,1,.406-.278L3.9,4.146A.246.246,0,0,1,3.837,4.488ZM7.377,3.05a.246.246,0,1,1-.492,0V.866a.246.246,0,1,1,.492,0Zm4.853-.428L11,4.424a.246.246,0,0,1-.342.064h0a.246.246,0,0,1-.064-.342l1.233-1.8a.246.246,0,0,1,.406.278Z" fill="#f9ad60"/>
</svg>
